<?xml version="1.0" encoding="iso-8859-1"?>
<!-- Uploaded to: SVG Repo, www.svgrepo.com, Generator: SVG Repo Mixer Tools -->
<svg height="40px" width="40px" version="1.1" id="Layer_1" xmlns="http://www.w3.org/2000/svg" xmlns:xlink="http://www.w3.org/1999/xlink" 
	 viewBox="0 0 512 512" xml:space="preserve">
<g transform="translate(1 1)">
	<path style="fill:#FDCC00;" d="M105.808,314.733L105.808,314.733c-22.187-22.187-34.133-51.2-34.133-82.773V152.6
		c0-108.373,119.467-102.4,119.467-102.4h76.8c118.613,0,136.533-42.667,136.533-42.667s46.933,75.093,30.72,231.253
		c-2.56,26.453-14.507,51.2-33.28,69.973l-5.973,5.973"/>
	<path style="fill:#FFE100;" d="M105.808,195.267c0-6.827,1.707-13.653,4.267-19.627c9.387-23.04,36.693-32.427,60.587-23.893
		c12.8,4.267,36.693,9.387,80.213,9.387s67.413-5.12,80.213-9.387c23.893-8.533,51.2,0.853,60.587,23.893
		c2.56,5.973,4.267,12.8,4.267,19.627v77.653c0,53.76-4.267,112.64-44.373,151.04c-14.507,13.653-31.573,24.747-47.787,35.84
		c-16.213,11.093-30.72,25.6-52.053,25.6s-35.84-14.507-52.053-25.6s-33.28-22.187-47.787-35.84
		c-41.813-38.4-46.08-98.133-46.08-151.893V195.267z"/>
	<g>
		<path style="fill:#FFFFFF;" d="M87.888,152.6c0-93.013,87.893-101.547,112.64-102.4h-10.24c0,0-119.467-5.973-119.467,102.4v79.36
			c0,30.72,11.947,60.587,34.133,82.773h17.067c-22.187-22.187-34.133-51.2-34.133-82.773C87.888,231.96,87.888,152.6,87.888,152.6z
			"/>
		<path style="fill:#FFFFFF;" d="M215.035,459.8c-16.213-11.093-33.28-22.187-47.787-35.84
			c-40.96-38.4-45.227-98.133-45.227-151.893v-76.8c0-6.827,1.707-13.653,4.267-19.627c5.973-14.507,19.627-23.893,34.987-26.453
			c-21.333-3.413-43.52,5.973-52.053,26.453c-2.56,5.973-4.267,12.8-4.267,19.627v76.8c0,53.76,4.267,113.493,45.227,151.893
			c14.507,13.653,31.573,24.747,47.787,35.84s30.72,25.6,52.053,25.6c2.56,0,5.973,0,8.533-0.853
			C242.342,481.133,229.542,469.187,215.035,459.8"/>
	</g>
	<g>
		<path style="fill:#FFA800;" d="M403.622,7.533c0,0-2.56,5.973-11.093,12.8c11.947,27.307,36.693,98.987,24.747,218.453
			c-2.56,26.453-14.507,51.2-33.28,69.973l-5.973,5.973h17.067l5.973-5.973c18.773-18.773,30.72-43.52,33.28-69.973
			C450.555,82.627,403.622,7.533,403.622,7.533"/>
		<path style="fill:#FFA800;" d="M395.089,195.267c0-6.827-1.707-13.653-4.267-19.627c-8.533-20.48-30.72-29.867-52.053-26.453
			c15.36,2.56,28.16,11.947,34.133,26.453c2.56,5.973,4.267,12.8,4.267,19.627v77.653c0,53.76-4.267,112.64-44.373,151.04
			c-13.653,13.653-30.72,24.747-46.933,35.84c-14.507,9.387-27.307,22.187-43.52,24.747c2.56,0.853,5.973,0.853,8.533,0.853
			c21.333,0,35.84-14.507,52.053-25.6c16.213-11.093,33.28-22.187,47.787-35.84c40.107-38.4,44.373-97.28,44.373-151.04V195.267z"/>
	</g>
	<path style="fill:#FFE100;" d="M336.208,511c-5.12,0-8.533-3.413-8.533-8.533v-43.52c-0.853,0.853-1.707,1.707-2.56,1.707
		l-7.68,5.12c-3.413,2.56-5.973,4.267-9.387,6.827c-14.507,11.093-29.013,21.333-48.64,21.333s-34.133-10.24-47.787-20.48
		c-3.413-2.56-5.973-4.267-9.387-6.827l-8.533-5.12c-0.853-0.853-1.707-1.707-3.413-1.707v42.667c0,5.12-3.413,8.533-8.533,8.533
		c-5.12,0-8.533-3.413-8.533-8.533v-59.733c0-3.413,1.707-5.973,4.267-7.68s5.973-0.853,8.533,0.853
		c5.12,3.413,11.093,7.68,16.213,11.093l8.533,5.973c3.413,2.56,6.827,5.12,10.24,7.68c11.947,8.533,23.04,17.067,37.547,17.067
		c14.507,0,25.6-8.533,37.547-17.067c3.413-2.56,6.827-5.12,10.24-7.68l7.68-5.12c5.12-3.413,11.093-6.827,16.213-11.093
		c2.56-1.707,5.973-1.707,8.533-0.853c2.56,1.707,4.267,4.267,4.267,7.68v59.733C344.742,507.587,340.475,511,336.208,511z"/>
	<path d="M327.675,511c-5.12,0-8.533-3.413-8.533-8.533v-43.52c-0.853,0.853-1.707,0.853-2.56,1.707l-7.68,5.12
		c-3.413,2.56-6.827,4.267-9.387,6.827c-14.507,11.093-29.013,21.333-48.64,21.333s-34.133-10.24-47.787-20.48
		c-3.413-2.56-5.973-4.267-9.387-6.827l-8.533-5.12c-0.853-0.853-1.707-1.707-3.413-1.707v42.667c0,5.12-3.413,8.533-8.533,8.533
		c-5.12,0-8.533-3.413-8.533-8.533v-59.733c0-3.413,1.707-5.973,4.267-7.68c2.56-1.707,5.973-0.853,8.533,0.853
		c5.12,3.413,11.093,7.68,16.213,11.093l8.533,5.973c3.413,2.56,6.827,5.12,10.24,7.68c11.947,8.533,23.04,17.067,37.547,17.067
		s25.6-8.533,37.547-17.067c3.413-2.56,6.827-5.12,10.24-7.68l8.533-5.12c5.12-3.413,10.24-6.827,16.213-11.093
		c2.56-1.707,5.973-1.707,8.533-0.853c2.56,1.707,4.267,4.267,4.267,7.68v59.733C336.208,507.587,331.942,511,327.675,511z"/>
	<path d="M250.875,493.933c-19.627,0-34.133-10.24-47.787-20.48c-3.413-2.56-5.973-4.267-9.387-6.827l-8.533-5.12
		c-13.653-9.387-28.16-18.773-40.96-30.72c-41.813-40.107-46.933-99.84-46.933-158.72v-76.8c0-7.68,1.707-16.213,5.12-23.04
		c8.533-19.627,28.16-32.427,51.2-32.427c6.827,0,13.653,0.853,20.48,3.413c11.093,4.267,34.133,9.387,76.8,9.387
		s65.707-5.12,77.653-9.387c6.827-2.56,13.653-3.413,20.48-3.413c22.187,0,42.667,12.8,51.2,32.427
		c3.413,7.68,5.12,15.36,5.12,23.04v77.653c0,58.027-5.973,117.76-46.933,157.013c-12.8,11.947-27.307,21.333-40.96,30.72
		l-8.533,5.12c-3.413,2.56-6.827,4.267-9.387,6.827C285.008,483.693,270.502,493.933,250.875,493.933z M152.742,156.867
		c-15.36,0-29.867,8.533-34.987,22.187c-2.56,5.12-3.413,10.24-3.413,16.213v76.8c0,54.613,5.12,110.08,41.813,145.92
		c11.947,11.093,25.6,20.48,38.4,29.013l8.533,5.973c3.413,2.56,6.827,5.12,10.24,7.68c11.947,8.533,23.04,17.067,37.547,17.067
		c14.507,0,25.6-8.533,37.547-17.067c3.413-2.56,6.827-5.12,10.24-7.68l8.533-5.973c13.653-8.533,27.307-17.92,38.4-29.013
		c38.4-36.693,41.813-93.867,41.813-145.067v-77.653c0-5.973-0.853-11.093-3.413-17.067c-5.973-13.653-18.773-22.187-34.987-22.187
		c-5.12,0-10.24,0.853-14.507,2.56c-13.653,5.12-38.4,11.093-83.627,11.093s-69.973-5.973-83.627-10.24
		C162.982,157.72,157.862,156.867,152.742,156.867z"/>
	<path d="M395.942,323.267c-2.56,0-4.267-0.853-5.973-2.56c-3.413-3.413-3.413-8.533,0-11.947l5.973-5.973
		c17.92-17.92,29.013-40.96,30.72-64.853c11.947-116.907-12.8-187.733-23.893-214.187c-14.507,14.507-50.347,34.987-134.827,34.987
		h-76.8c-0.853,0-54.613-1.707-86.187,28.16c-17.067,16.213-24.747,38.4-24.747,65.707v79.36c0,29.013,11.093,56.32,31.573,76.8
		c3.413,3.413,3.413,8.533,0,11.947c-3.413,3.413-8.533,3.413-11.947,0c-23.893-23.893-36.693-54.613-36.693-88.747V152.6
		c0-32.427,10.24-58.88,29.867-77.653c37.547-35.84,95.573-33.28,98.133-33.28h76.8c110.08,0,128-36.693,128-37.547
		c1.707-2.56,4.267-5.12,7.68-5.12c3.413,0,5.973,1.707,7.68,4.267c1.707,3.413,47.787,79.36,32.427,236.373
		c-2.56,28.16-15.36,54.613-35.84,75.093l-5.973,5.973C400.208,322.413,397.648,323.267,395.942,323.267z"/>
</g>
</svg>