<?xml version="1.0" encoding="iso-8859-1"?>
<!-- Uploaded to: SVG Repo, www.svgrepo.com, Generator: SVG Repo Mixer Tools -->
<svg height="800px" width="800px" version="1.1" id="Layer_1" xmlns="http://www.w3.org/2000/svg" xmlns:xlink="http://www.w3.org/1999/xlink" 
	 viewBox="0 0 512 512" xml:space="preserve">
<path style="fill:#FFE100;" d="M414.72,223.418c0,58.647-4.655,151.738-48.407,193.629c-13.033,11.171-26.065,20.48-40.029,29.789
	h13.964c120.087,0,148.945-65.164,148.945-65.164c-28.858-70.749-35.375-147.084-37.236-192.698
	c-1.862-49.338-23.273-98.676-60.509-131.258C330.007,5.585,256.465,9.309,256.465,9.309s-74.473-3.724-134.982,48.407
	c-38.167,32.582-59.578,81.92-60.509,131.258c-1.862,45.615-9.309,121.949-37.236,192.698c0,0,28.858,65.164,148.945,65.164h13.033
	c-13.964-9.309-26.996-18.618-39.098-29.789c-44.684-41.891-48.407-134.982-48.407-193.629c3.724,4.655,146.153,38.167,204.8-55.855
	C303.011,167.564,332.8,223.418,414.72,223.418"/>
<path style="fill:#FFA800;" d="M451.025,189.905c-0.931-50.269-22.342-99.607-59.578-132.189
	C330.007,5.585,256.465,9.309,256.465,9.309s-3.724,0-9.309,0c21.411,0.931,77.265,7.447,125.673,48.407
	c38.167,32.582,58.647,80.989,60.509,131.258c1.862,44.684,8.378,121.018,37.236,192.698c0,0-27.927,63.302-143.36,65.164l0,0
	h13.033c120.087,0,148.945-65.164,148.945-65.164C460.335,310.924,452.887,234.589,451.025,189.905"/>
<path style="fill:#FFFFFF;" d="M60.975,188.975c0.931-49.338,22.342-98.676,60.509-131.258
	C181.993,5.585,256.465,9.309,256.465,9.309s3.724,0,9.309,0c-21.411,0.931-77.265,7.447-125.673,48.407
	c-38.167,32.582-59.578,81.92-60.509,131.258c-1.862,45.615-9.309,121.949-37.236,192.698c0,0,27.927,63.302,143.36,65.164l0,0
	h-13.033c-120.087,0-148.945-65.164-148.945-65.164C51.665,310.924,59.113,234.589,60.975,188.975"/>
<path style="fill:#FDCC00;" d="M326.284,446.836c13.964-9.309,26.996-18.618,39.098-29.789
	c44.684-41.891,49.338-134.982,49.338-193.629c-81.92,0-111.709-55.855-111.709-55.855c-58.647,94.022-201.076,60.509-204.8,55.855
	c0,58.647,4.655,151.738,48.407,193.629c12.102,11.171,25.135,20.48,39.098,29.789h-12.102c10.24,2.793,20.48,5.585,25.135,9.309
	c17.687,12.102,33.513,27.927,56.785,27.927s39.098-15.825,56.785-27.927c4.655-2.793,13.964-5.585,24.204-9.309H326.284z"/>
<path style="fill:#FFE100;" d="M349.556,512c-5.585,0-9.309-3.724-9.309-9.309v-47.476c-0.931,0.931-2.793,1.862-3.724,2.793
	l-8.378,5.585c-3.724,2.793-6.516,4.655-10.24,7.447c-14.895,11.171-30.72,22.342-52.131,22.342
	c-21.411,0-37.236-11.171-52.131-22.342c-3.724-2.793-6.516-4.655-10.24-7.447l-8.378-5.585c-0.931-0.931-1.862-0.931-2.793-1.862
	v46.545c0,5.585-3.724,9.309-9.309,9.309s-9.309-3.724-9.309-9.309v-65.164c0-3.724,1.862-6.516,4.655-8.378
	c2.793-1.862,6.516-0.931,9.309,0.931c5.585,3.724,11.171,7.447,17.687,12.102l9.309,5.585c3.724,2.793,7.447,5.585,11.171,7.447
	c13.033,9.309,25.135,18.618,40.96,18.618s27.927-9.309,40.96-18.618c3.724-2.793,7.447-5.585,11.171-7.447l9.309-5.585
	c5.585-3.724,12.102-8.378,17.687-12.102c2.793-1.862,6.516-1.862,9.309-0.931c2.793,1.862,4.655,4.655,4.655,8.378v65.164
	C358.865,508.276,354.211,512,349.556,512z"/>
<path d="M340.247,512c-5.585,0-9.309-3.724-9.309-9.309v-47.476c-0.931,0.931-2.793,1.862-3.724,2.793l-8.378,5.585
	c-3.724,2.793-6.516,4.655-10.24,7.447c-15.825,11.171-30.72,22.342-52.131,22.342s-37.236-11.171-52.131-22.342
	c-3.724-2.793-6.516-4.655-10.24-7.447l-8.378-5.585c-0.931-0.931-1.862-0.931-2.793-1.862v46.545c0,5.585-3.724,9.309-9.309,9.309
	c-5.585,0-9.309-3.724-9.309-9.309v-65.164c0-3.724,1.862-6.516,4.655-8.378c2.793-1.862,6.516-0.931,9.309,0.931
	c5.585,3.724,11.171,7.447,17.687,12.102l9.309,5.585c3.724,2.793,7.447,5.585,11.171,7.447
	c13.033,9.309,25.135,18.618,40.96,18.618s27.927-9.309,40.96-18.618c3.724-2.793,7.447-5.585,11.171-7.447l9.309-5.585
	c5.585-3.724,12.102-8.378,17.687-12.102c2.793-1.862,6.516-1.862,9.309-0.931c2.793,1.862,4.655,4.655,4.655,8.378v65.164
	C349.556,508.276,344.902,512,340.247,512z"/>
<path d="M340.247,456.145h-13.033c-3.724,0-7.447-2.793-9.309-6.516c-0.931-3.724,0-8.378,3.724-10.24
	c13.033-9.309,26.065-17.687,38.167-28.858c41.891-40.029,45.615-135.913,45.615-177.804c-56.785-2.793-88.436-31.651-102.4-48.407
	c-37.236,47.476-95.884,57.716-139.636,57.716c-18.618,0-40.96-2.793-55.855-6.516c0,43.753,4.655,134.982,45.615,174.08
	c11.171,10.24,24.204,19.549,37.236,27.927c2.793,1.862,5.585,4.655,5.585,8.378c0,5.585-3.724,9.309-9.309,9.309l0,0h-13.964
	c-124.742,0.931-156.393-67.025-158.255-69.818c-0.931-1.862-0.931-4.655,0-7.447c26.996-67.956,35.375-140.567,37.236-188.975
	C53.527,134.051,76.8,83.782,114.967,51.2C169.891,3.724,234.124,0,252.742,0c1.862,0,2.793,0,3.724,0c0.931,0,1.862,0,3.724,0
	c18.618,0,82.851,3.724,137.775,51.2c39.098,33.513,61.44,83.782,63.302,138.705c1.862,48.407,9.309,121.018,36.305,188.975
	c0.931,2.793,0.931,4.655,0,7.447C495.709,388.189,464.058,456.145,340.247,456.145z M33.978,380.742
	c7.447,12.102,37.236,51.2,121.949,55.855c-5.585-3.724-10.24-8.378-15.825-13.033c-34.444-32.582-51.2-98.676-51.2-200.145
	c0-3.724,2.793-7.447,6.516-8.378c2.793-0.931,6.516-0.931,8.378,0.931c4.655,1.862,27.927,8.378,60.509,8.378
	c42.822,0,99.607-10.24,131.258-61.44c1.862-2.793,4.655-4.655,8.378-4.655s6.516,1.862,7.447,4.655
	c0.931,1.862,27.927,51.2,103.331,51.2c4.655,0,9.309,3.724,9.309,9.309c0,101.469-16.756,167.564-51.2,200.145
	c-4.655,4.655-10.24,9.309-15.825,13.033c84.713-4.655,115.433-44.684,121.949-55.855c-26.996-68.887-35.375-141.498-36.305-190.836
	c-1.862-49.338-22.342-94.953-57.716-124.742c-50.269-42.822-108.916-46.545-125.673-46.545c-3.724,0-2.793,0-2.793,0
	s0.931,0-3.724,0c-16.756,0-75.404,3.724-125.673,46.545c-34.444,29.789-55.855,75.404-57.716,124.742
	C68.422,239.244,60.044,311.855,33.978,380.742z"/>
<path d="M255.535,493.382c-21.411,0-37.236-11.171-52.131-22.342c-3.724-2.793-6.516-4.655-10.24-7.447
	c-2.793-1.862-13.033-4.655-21.411-7.447c-4.655-0.931-7.447-5.585-7.447-10.24c0-0.931,0-0.931,0-0.931
	c-8.378-6.516-17.687-13.033-25.135-20.48c-33.513-33.513-50.269-99.607-50.269-201.076c0-3.724,2.793-7.447,6.516-8.378
	c2.793-0.931,6.516-0.931,8.378,0.931c4.655,1.862,27.927,8.378,60.509,8.378c42.822,0,99.607-10.24,131.258-61.44
	c1.862-2.793,4.655-4.655,8.378-4.655s6.516,1.862,7.447,4.655c0.931,1.862,27.927,51.2,103.331,51.2
	c4.655,0,9.309,3.724,9.309,9.309c0,101.469-16.756,167.564-51.2,200.145c-8.378,7.447-16.756,13.964-26.065,20.48v0.931
	c0.931,4.655-1.862,9.309-6.516,10.24c-8.378,2.793-18.618,5.585-22.342,7.447c-3.724,2.793-6.516,4.655-10.24,7.447
	C292.771,482.211,277.876,493.382,255.535,493.382z M194.095,443.113c3.724,1.862,7.447,2.793,9.309,4.655
	c3.724,2.793,7.447,5.585,11.171,7.447c13.033,9.309,25.135,18.618,40.96,18.618s27.927-9.309,40.96-18.618
	c3.724-2.793,7.447-5.585,11.171-7.447c2.793-1.862,6.516-3.724,10.24-4.655c0.931-1.862,1.862-2.793,3.724-3.724
	c13.033-9.309,26.065-17.687,38.167-28.858c41.891-40.029,45.615-135.913,45.615-177.804c-56.785-2.793-88.436-31.651-102.4-48.407
	c-37.236,47.476-95.884,57.716-139.636,57.716c-18.618,0-40.96-2.793-55.855-6.516c0,43.753,4.655,134.982,45.615,174.08
	c11.171,11.171,24.204,19.549,38.167,28.858C192.233,440.32,193.164,442.182,194.095,443.113z"/>
</svg>